HIERARCHY
ROOT Hips
{
	OFFSET 66.938599 -15.301913 79.835297
	CHANNELS 6 Xposition Yposition Zposition Xrotation Yrotation Zrotation
	JOINT spine
	{
		OFFSET 0.000000 -0.393701 6.846367
		CHANNELS 3 Xrotation Yrotation Zrotation
		JOINT spine1
		{
			OFFSET 0.000000 -0.000001 9.496208
			CHANNELS 3 Xrotation Yrotation Zrotation
			JOINT spine2
			{
				OFFSET 0.000000 -0.000002 9.099091
				CHANNELS 3 Xrotation Yrotation Zrotation
				JOINT Neck
				{
					OFFSET 0.000000 -1.113784 23.361206
					CHANNELS 3 Xrotation Yrotation Zrotation
					JOINT Head
					{
						OFFSET 0.000000 -0.000002 7.058014
						CHANNELS 3 Xrotation Yrotation Zrotation
						End Site
						{
							OFFSET 0.000000 5.634188 17.084396
						}
					}
				}
				JOINT RightShoulder
				{
					OFFSET -3.831360 0.533489 9.826309
					CHANNELS 3 Xrotation Yrotation Zrotation
					JOINT RightArm
					{
						OFFSET 0.000000 -0.000002 12.888100
						CHANNELS 3 Xrotation Yrotation Zrotation
						JOINT RightArmRoll
						{
							OFFSET 0.000000 -0.000001 6.506172
							CHANNELS 3 Xrotation Yrotation Zrotation
							JOINT RightForeArm
							{
								OFFSET 0.000000 -0.000003 18.950104
								CHANNELS 3 Xrotation Yrotation Zrotation
								JOINT RightForeArmRoll
								{
									OFFSET 0.000000 -0.000001 7.300919
									CHANNELS 3 Xrotation Yrotation Zrotation
									JOINT RightHand
									{
										OFFSET 0.000000 -0.000003 14.651398
										CHANNELS 3 Xrotation Yrotation Zrotation
										End Site
										{
											OFFSET 0.000000 0.000000 0.100006
										}
									}
								}
							}
						}
					}
				}
				JOINT LeftShoulder
				{
					OFFSET 3.831360 0.533489 9.826309
					CHANNELS 3 Xrotation Yrotation Zrotation
					JOINT LeftArm
					{
						OFFSET 0.000000 -0.000002 12.888100
						CHANNELS 3 Xrotation Yrotation Zrotation
						JOINT LeftArmRoll
						{
							OFFSET 0.000000 -0.000001 6.506172
							CHANNELS 3 Xrotation Yrotation Zrotation
							JOINT LeftForeArm
							{
								OFFSET 0.000000 -0.000003 18.950104
								CHANNELS 3 Xrotation Yrotation Zrotation
								JOINT LeftForeArmRoll
								{
									OFFSET 0.000000 -0.000001 7.300934
									CHANNELS 3 Xrotation Yrotation Zrotation
									JOINT LeftHand
									{
										OFFSET 0.000000 -0.000003 14.651398
										CHANNELS 3 Xrotation Yrotation Zrotation
										End Site
										{
											OFFSET 0.000000 0.000000 0.100006
										}
									}
								}
							}
						}
					}
				}
			}
		}
	}
	JOINT RightUpLeg
	{
		OFFSET -6.068371 0.933478 -1.112778
		CHANNELS 3 Xrotation Yrotation Zrotation
		JOINT RightUpLegRoll
		{
			OFFSET 0.000000 -0.000003 17.179596
			CHANNELS 3 Xrotation Yrotation Zrotation
			JOINT RightLeg
			{
				OFFSET 0.000000 0.000003 -21.274300
				CHANNELS 3 Xrotation Yrotation Zrotation
				JOINT RightLegRoll
				{
					OFFSET 0.000000 -0.000003 21.343903
					CHANNELS 3 Xrotation Yrotation Zrotation
					JOINT RightFoot
					{
						OFFSET 0.000000 -0.000003 17.765198
						CHANNELS 3 Xrotation Yrotation Zrotation
						JOINT RightToeBase
						{
							OFFSET 0.000000 -0.000003 14.850792
							CHANNELS 3 Xrotation Yrotation Zrotation
							End Site
							{
								OFFSET 0.006294 0.829003 7.192139
							}
						}
					}
				}
			}
		}
	}
	JOINT LeftUpLeg
	{
		OFFSET 6.068367 0.933478 -1.112778
		CHANNELS 3 Xrotation Yrotation Zrotation
		JOINT LeftUpLegRoll
		{
			OFFSET 0.000000 -0.000003 17.179703
			CHANNELS 3 Xrotation Yrotation Zrotation
			JOINT LeftLeg
			{
				OFFSET 0.000000 -0.000004 21.274200
				CHANNELS 3 Xrotation Yrotation Zrotation
				JOINT LeftLegRoll
				{
					OFFSET 0.000000 -0.000004 21.541199
					CHANNELS 3 Xrotation Yrotation Zrotation
					JOINT LeftFoot
					{
						OFFSET 0.000000 -0.000003 17.567902
						CHANNELS 3 Xrotation Yrotation Zrotation
						JOINT LeftToeBase
						{
							OFFSET 0.000000 -0.000002 14.850800
							CHANNELS 3 Xrotation Yrotation Zrotation
							End Site
							{
								OFFSET -0.028214 0.829004 7.192139
							}
						}
					}
				}
			}
		}
	}
}
MOTION
Frames: 11
Frame Time: 0.041667
52.218697 2.609170 90.736900 1.416948 -0.729966 -24.064145 -1.054071 -0.022435 0.135702 1.894731 -0.044930 0.262862 3.539802 -0.041779 0.263379 35.331100 4.863400 9.109831 -6.918402 5.685851 9.486203 24.348670 -62.330483 27.230528 -54.744472 -118.023565 -97.145050 0.000001 0.000000 -0.000005 86.173649 3.886071 -7.240139 0.000000 -0.000000 -2.999989 -4.999882 -7.999982 -0.000000 -10.152290 58.328299 11.924711 -58.363878 113.719638 71.284874 -0.000003 0.000001 0.000008 99.913885 -2.179542 8.875062 0.000007 -0.000019 2.999998 -5.000010 7.999922 0.000010 -14.174717 -171.167778 1.676015 179.999991 -0.000004 -1.119000 165.084648 -1.472677 -0.788218 -0.000005 0.000001 0.117442 66.805582 6.947831 2.154308 25.456916 -7.351608 -0.000001 -7.409408 172.377432 -3.432116 -0.000004 -0.000005 -1.115011 -15.290128 4.729804 1.127750 -0.000004 0.000002 -0.225614 68.792566 -6.911845 -2.108498 25.456959 7.355623 -0.000004 
52.136902 2.600289 90.755898 1.426710 -0.774757 -24.121807 -1.061382 -0.021149 0.134343 1.880101 -0.042443 0.260051 3.525171 -0.039325 0.260540 35.318427 4.796110 9.212073 -6.993968 5.854944 9.576805 24.356509 -62.391948 27.224145 -54.833336 -117.733446 -96.873666 0.000000 0.000000 -0.000004 86.311427 3.927868 -7.309868 -0.000000 -0.000002 -2.999992 -4.999882 -7.999985 -0.000000 -10.155930 58.324584 11.928832 -57.800653 113.833551 70.987030 -0.000001 0.000003 0.000006 100.068166 -2.231025 8.985557 0.000009 -0.000015 3.000001 -5.000014 7.999917 0.000009 -14.208502 -171.181698 1.667064 179.999991 -0.000005 -1.118003 165.063720 -1.476400 -0.788790 -0.000005 0.000001 0.119049 66.821810 6.947829 2.152483 25.456914 -7.351614 0.000001 -7.398880 172.374263 -3.434280 -0.000004 -0.000005 -1.115009 -15.288079 4.727825 1.127060 -0.000005 0.000002 -0.225570 68.786446 -6.911826 -2.108479 25.456960 7.355623 -0.000004 
52.056900 2.607385 90.774200 1.436147 -0.819708 -24.179051 -1.068739 -0.019723 0.132997 1.865371 -0.039680 0.257300 3.510441 -0.036595 0.257756 35.307065 4.726178 9.313987 -7.069967 6.025785 9.667466 24.368039 -62.455707 27.221309 -54.915841 -117.437699 -96.592255 -0.000001 0.000000 -0.000002 86.449691 3.969295 -7.380234 0.000001 -0.000001 -2.999993 -4.999885 -7.999981 0.000000 -10.159206 58.319796 11.932466 -57.242767 113.948210 70.692622 -0.000002 0.000003 0.000006 100.224536 -2.282213 9.095197 0.000007 -0.000015 3.000000 -5.000014 7.999920 0.000013 -14.241879 -171.195604 1.659327 179.999991 -0.000003 -1.117006 165.042888 -1.481088 -0.789617 -0.000006 0.000001 0.120726 66.838558 6.947849 2.150629 25.456912 -7.351614 -0.000000 -7.387425 172.373074 -3.436192 -0.000005 -0.000005 -1.115020 -15.284621 4.725729 1.126228 -0.000005 0.000002 -0.225506 68.780012 -6.911822 -2.108481 25.456957 7.355624 -0.000004 
51.975697 2.596452 90.797989 1.445355 -0.864779 -24.236083 -1.076140 -0.018200 0.131671 1.850581 -0.036723 0.254588 3.495651 -0.033671 0.255011 35.296655 4.654397 9.415747 -7.146316 6.197788 9.758291 24.382348 -62.520970 27.221121 -54.989662 -117.137963 -96.299725 0.000001 -0.000002 -0.000004 86.588330 4.010369 -7.451117 -0.000000 0.000001 -2.999991 -4.999885 -7.999982 -0.000002 -10.162210 58.314215 11.935728 -56.688562 114.064268 70.400495 -0.000001 0.000003 0.000008 100.382669 -2.332780 9.205977 0.000010 -0.000014 2.999999 -5.000009 7.999922 0.000008 -14.274930 -171.207543 1.651982 179.999991 -0.000005 -1.114997 165.022138 -1.486738 -0.791708 -0.000005 0.000000 0.122453 66.855524 6.947842 2.148753 25.456914 -7.351613 0.000001 -7.375337 172.371872 -3.437768 -0.000006 -0.000004 -1.115020 -15.280257 4.723559 1.125301 -0.000004 0.000003 -0.225434 68.773366 -6.911803 -2.108491 25.456957 7.355623 -0.000003 
51.897499 2.587708 90.754089 1.454436 -0.909924 -24.292901 -1.083551 -0.016622 0.130355 1.835761 -0.033655 0.251895 3.480821 -0.030636 0.252287 35.286871 4.581545 9.517360 -7.222889 6.370364 9.849441 24.398035 -62.587161 27.222247 -55.055525 -116.834798 -95.998411 -0.000001 0.000000 -0.000003 86.727208 4.051097 -7.522322 0.000002 -0.000003 -2.999990 -4.999882 -7.999979 0.000002 -10.165075 58.308232 11.938797 -56.140446 114.181495 70.113763 -0.000002 0.000003 0.000003 100.541757 -2.382683 9.317835 0.000010 -0.000015 2.999997 -5.000011 7.999922 0.000008 -14.307876 -171.219483 1.645131 179.999991 -0.000005 -1.114000 165.001388 -1.492385 -0.792799 -0.000005 0.000001 0.124210 66.872688 6.947813 2.146864 25.456916 -7.351613 -0.000000 -7.362888 172.370684 -3.439153 -0.000004 -0.000004 -1.115030 -15.275289 4.721356 1.124316 -0.000005 0.000002 -0.225352 68.766618 -6.911815 -2.108515 25.456957 7.355624 -0.000005 
51.821003 2.598453 90.769203 1.463464 -0.955102 -24.349597 -1.090970 -0.015029 0.129040 1.820920 -0.030559 0.249217 3.465991 -0.027572 0.249566 35.277224 4.508417 9.618922 -7.299572 6.542906 9.941015 24.414267 -62.653585 27.223888 -55.110761 -116.529775 -95.686975 -0.000001 0.000001 -0.000001 86.866230 4.091508 -7.593830 0.000002 -0.000004 -2.999989 -4.999882 -7.999982 -0.000000 -10.167887 58.302064 11.941804 -55.598652 114.300006 69.833486 -0.000003 0.000001 0.000006 100.701249 -2.432111 9.429819 0.000009 -0.000013 3.000000 -5.000015 7.999922 0.000011 -14.340720 -171.231408 1.638420 179.999991 -0.000004 -1.112006 164.980747 -1.498034 -0.793878 -0.000005 0.000001 0.125971 66.889853 6.947819 2.144979 25.456914 -7.351615 -0.000000 -7.350352 172.369468 -3.440478 -0.000004 -0.000005 -1.115034 -15.270121 4.719136 1.123310 -0.000004 0.000003 -0.225266 68.759876 -6.911824 -2.108438 25.456964 7.355624 -0.000005 
51.730595 2.594003 90.728989 1.472544 -1.000269 -24.406484 -1.098370 -0.013463 0.127722 1.806101 -0.027515 0.246524 3.451171 -0.024561 0.246843 35.267385 4.435781 9.720533 -7.376270 6.714833 10.033154 24.429944 -62.719510 27.224939 -55.152791 -116.224630 -95.363928 0.000000 -0.000001 -0.000004 87.005258 4.131642 -7.665549 0.000001 -0.000007 -2.999989 -4.999882 -7.999985 -0.000002 -10.170783 58.296190 11.944912 -55.059777 114.421064 69.556468 -0.000003 0.000003 0.000009 100.860516 -2.481097 9.540889 0.000008 -0.000016 2.999998 -5.000011 7.999915 0.000009 -14.373665 -171.243375 1.631477 179.999991 -0.000005 -1.110994 164.959997 -1.503695 -0.794981 -0.000005 0.000001 0.127724 66.906942 6.947846 2.143103 25.456916 -7.351611 -0.000002 -7.337992 172.368266 -3.441916 -0.000005 -0.000005 -1.115041 -15.265251 4.716937 1.122335 -0.000004 0.000002 -0.225184 68.753231 -6.911838 -2.108357 25.456964 7.355621 -0.000005 
51.628101 2.587989 90.742599 1.481776 -1.045390 -24.463461 -1.105758 -0.011966 0.126393 1.791331 -0.024608 0.243810 3.436401 -0.021686 0.244091 35.256972 4.364435 9.822178 -7.452858 6.885534 10.125965 24.443761 -62.784301 27.224222 -55.184056 -115.919512 -95.033599 0.000001 0.000000 -0.000006 87.144218 4.171442 -7.737276 0.000002 -0.000003 -2.999990 -4.999884 -7.999980 0.000003 -10.173859 58.290815 11.948277 -54.528231 114.543884 69.288075 -0.000003 0.000003 0.000009 101.019051 -2.529285 9.653012 0.000009 -0.000015 2.999999 -5.000014 7.999918 0.000013 -14.406769 -171.256284 1.624185 179.999991 -0.000005 -1.109001 164.939247 -1.508377 -0.795829 -0.000005 0.000001 0.129438 66.923792 6.947843 2.141237 25.456914 -7.351613 0.000002 -7.326086 172.367091 -3.443593 -0.000005 -0.000005 -1.115041 -15.261189 4.714790 1.121438 -0.000005 0.000002 -0.225109 68.746592 -6.911853 -2.108376 25.456960 7.355624 -0.000003 
51.548306 2.585990 90.716393 1.491260 -1.090411 -24.520815 -1.113110 -0.010580 0.125053 1.776630 -0.021919 0.241050 3.421700 -0.019030 0.241301 35.245531 4.295137 9.923969 -7.529250 7.054424 10.219562 24.454611 -62.847227 27.220607 -55.201978 -115.616238 -94.694610 -0.000000 -0.000000 -0.000002 87.282994 4.210990 -7.808884 0.000001 -0.000004 -2.999988 -4.999883 -7.999985 0.000000 -10.177258 58.286410 11.952066 -54.000439 114.669601 69.025004 -0.000002 0.000001 0.000010 101.176057 -2.576836 9.765165 0.000008 -0.000015 2.999998 -5.000013 7.999919 0.000010 -14.440241 -171.270190 1.616184 179.999991 -0.000003 -1.108001 164.918428 -1.513056 -0.797679 -0.000005 0.000001 0.131094 66.940334 6.947838 2.139391 25.456918 -7.351608 -0.000000 -7.314915 172.364905 -3.445544 -0.000004 -0.000004 -1.115042 -15.258132 4.712733 1.120652 -0.000005 0.000003 -0.225055 68.740260 -6.911851 -2.108373 25.456960 7.355622 -0.000005 
51.470501 2.597362 90.712402 1.501073 -1.135311 -24.578455 -1.120400 -0.009347 0.123681 1.762040 -0.019531 0.238226 3.407111 -0.016675 0.238452 35.232595 4.228689 10.026088 -7.605294 7.220901 10.314051 24.461182 -62.907675 27.212877 -55.205766 -115.316160 -94.347288 0.000000 0.000002 -0.000007 87.421408 4.250309 -7.880294 0.000003 -0.000006 -2.999992 -4.999883 -7.999984 -0.000000 -10.181014 58.283090 11.956366 -53.478967 114.797995 68.770736 -0.000002 -0.000000 0.000008 101.331136 -2.623870 9.877348 0.000009 -0.000014 2.999998 -5.000011 7.999919 0.000007 -14.474218 -171.284110 1.606842 179.999991 -0.000005 -1.107007 164.897378 -1.516771 -0.798276 -0.000006 0.000000 0.132668 66.956474 6.947852 2.137573 25.456918 -7.351610 -0.000000 -7.304737 172.362747 -3.448024 -0.000004 -0.000005 -1.115052 -15.256684 4.710797 1.120025 -0.000004 0.000003 -0.225021 68.734250 -6.911830 -2.108342 25.456960 7.355623 -0.000004 
51.378197 2.594876 90.689690 1.511310 -1.180030 -24.636668 -1.127629 -0.008309 0.122285 1.747570 -0.017524 0.235331 3.392641 -0.014704 0.235533 35.217890 4.165826 10.128344 -7.680907 7.384373 10.409545 24.462715 -62.965041 27.200258 -55.194451 -115.020672 -93.992200 -0.000000 0.000000 -0.000004 87.559439 4.289330 -7.951290 0.000002 -0.000004 -2.999989 -4.999883 -7.999983 0.000001 -10.185333 58.281430 11.961408 -52.964012 114.929080 68.526140 -0.000003 0.000001 0.000008 101.483524 -2.670150 9.989527 0.000009 -0.000016 2.999999 -5.000011 7.999912 0.000011 -14.508719 -171.299983 1.596319 179.999991 -0.000004 -1.104995 164.876245 -1.519508 -0.799617 -0.000005 0.000001 0.134144 66.971965 6.947832 2.135890 25.456911 -7.351611 0.000001 -7.295837 172.358635 -3.450954 -0.000004 -0.000005 -1.115059 -15.257246 4.708999 1.119601 -0.000004 0.000002 -0.225017 68.728539 -6.911792 -2.108392 25.456959 7.355623 -0.000005 
